g Ramp001
v -2.35 0.1409999 0.6675484
v 2.35 0.1410004 -2.35
v 2.35 0.1409999 0.6675484
v -2.35 0.1410004 -2.35
v -2.327953 0.1409999 0.9390227
v 2.327953 0.1409999 0.9390227
v -2.257556 0.1409998 1.217565
v 2.257556 0.1409998 1.217565
v -2.135084 0.1409998 1.490337
v 2.135084 0.1409998 1.490337
v -1.961467 0.1409997 1.742917
v 1.961467 0.1409997 1.742917
v -1.742917 0.1409997 1.961467
v 1.742917 0.1409997 1.961467
v -1.490337 0.1409997 2.135084
v 1.490337 0.1409997 2.135084
v -1.217565 0.1409996 2.257556
v 1.217565 0.1409996 2.257556
v -0.9390227 0.1409996 2.327953
v 0.9390227 0.1409996 2.327953
v -0.6675484 0.1409996 2.35
v 0.6675484 0.1409996 2.35
v 2.35 -0.1410001 0.6675484
v -2.35 -0.1409996 -2.35
v -2.35 -0.1410001 0.6675484
v 2.35 -0.1409996 -2.35
v 2.327953 -0.1410002 0.9390227
v -2.327953 -0.1410002 0.9390227
v 2.257556 -0.1410002 1.217565
v -2.257556 -0.1410002 1.217565
v 2.135084 -0.1410002 1.490337
v -2.135084 -0.1410002 1.490337
v 1.961467 -0.1410003 1.742917
v -1.961467 -0.1410003 1.742917
v 1.742917 -0.1410003 1.961467
v -1.742917 -0.1410003 1.961467
v 1.490337 -0.1410003 2.135084
v -1.490337 -0.1410003 2.135084
v 1.217565 -0.1410004 2.257556
v -1.217565 -0.1410004 2.257556
v 0.9390227 -0.1410004 2.327953
v -0.9390227 -0.1410004 2.327953
v 0.6675484 -0.1410004 2.35
v -0.6675484 -0.1410004 2.35
v 0.6675484 -0.1410004 2.35
v -0.6675484 0.1409996 2.35
v 0.6675484 0.1409996 2.35
v -0.6675484 -0.1410004 2.35
v 0.9390227 0.1409996 2.327953
v 0.9390227 -0.1410004 2.327953
v 1.217565 0.1409996 2.257556
v 1.217565 -0.1410004 2.257556
v 1.490337 0.1409997 2.135084
v 1.490337 -0.1410003 2.135084
v 1.742917 0.1409997 1.961467
v 1.742917 -0.1410003 1.961467
v 1.961467 0.1409997 1.742917
v 1.961467 -0.1410003 1.742917
v 2.135084 0.1409998 1.490337
v 2.135084 -0.1410002 1.490337
v 2.257556 0.1409998 1.217565
v 2.257556 -0.1410002 1.217565
v 2.327953 0.1409999 0.9390227
v 2.327953 -0.1410002 0.9390227
v 2.35 0.1409999 0.6675484
v 2.35 -0.1410001 0.6675484
v 2.35 -0.1409996 -2.35
v 2.35 0.1409999 0.6675484
v 2.35 0.1410004 -2.35
v 2.35 -0.1410001 0.6675484
v -2.35 -0.1409996 -2.35
v 2.35 0.1410004 -2.35
v -2.35 0.1410004 -2.35
v 2.35 -0.1409996 -2.35
v -2.35 -0.1410001 0.6675484
v -2.35 0.1410004 -2.35
v -2.35 0.1409999 0.6675484
v -2.35 -0.1409996 -2.35
v -2.327953 0.1409999 0.9390227
v -2.327953 -0.1410002 0.9390227
v -2.257556 0.1409998 1.217565
v -2.257556 -0.1410002 1.217565
v -2.135084 0.1409998 1.490337
v -2.135084 -0.1410002 1.490337
v -1.961467 0.1409997 1.742917
v -1.961467 -0.1410003 1.742917
v -1.742917 0.1409997 1.961467
v -1.742917 -0.1410003 1.961467
v -1.490337 0.1409997 2.135084
v -1.490337 -0.1410003 2.135084
v -1.217565 0.1409996 2.257556
v -1.217565 -0.1410004 2.257556
v -0.9390227 0.1409996 2.327953
v -0.9390227 -0.1410004 2.327953
v -0.6675484 0.1409996 2.35
v -0.6675484 -0.1410004 2.35
vt 1 1
vt 1 1
vt 0 0
vt 0 1
vt 1 1
vt 0 1
vt 0 1
vt 0 1
vt 1 0
vt 1 1
vt 1 1
vt 0 1
vt 0 1
vt 1 1
vt 1 1
vt 1 0
vt 0 1
vt 0 1
vt 1 1
vt 1 1
vt 0 1
vt 0 1
vt 0 0
vt 0 0
vt 0 1
vt 1 0
vt 1 1
vt 1 1
vt 0 1
vt 1 1
vt 1 0
vt 1 0
vt 1 1
vt 0 0
vt 0 0
vt 1 1
vt 1 0
vt 1 0
vt 1 1
vt 0 1
vt 1 1
vt 1 1
vt 0 1
vt 1 0
vt 0.6420316 0
vt 0.3579684 1
vt 0.6420316 1
vt 0.3579684 0
vt 0.7215801 1
vt 0.7215801 0
vt 0.8011286 1
vt 0.8011286 0
vt 0.8806772 1
vt 0.8806772 0
vt 0.9602257 1
vt 0.9602257 0
vt 1.039774 1
vt 1.039774 0
vt 1.119323 1
vt 1.119323 0
vt 1.198871 1
vt 1.198871 0
vt 1.27842 1
vt 1.27842 0
vt 1.357968 1
vt 1.357968 0
vt 1 0
vt 0.3579684 1
vt 1 1
vt 0.3579684 0
vt 1 0
vt 0 1
vt 1 1
vt 0 0
vt 0.6420316 0
vt 0 1
vt 0.6420316 1
vt 0 0
vt 0.7215801 1
vt 0.7215801 0
vt 0.8011286 1
vt 0.8011286 0
vt 0.8806772 1
vt 0.8806772 0
vt 0.9602257 1
vt 0.9602257 0
vt 1.039774 1
vt 1.039774 0
vt 1.119323 1
vt 1.119323 0
vt 1.198871 1
vt 1.198871 0
vt 1.27842 1
vt 1.27842 0
vt 1.357968 1
vt 1.357968 0
vn 0 1 0
vn 0 1 0
vn 0 1 0
vn 0 1 0
vn 0 1 0
vn 0 1 0
vn 0 1 0
vn 0 1 0
vn 0 1 0
vn 0 1 0
vn 0 1 0
vn 0 1 0
vn 0 1 0
vn 0 1 0
vn 0 1 0
vn 0 1 0
vn 0 1 0
vn 0 1 0
vn 0 1 0
vn 0 1 0
vn 0 1 0
vn 0 1 0
vn 0 -1 0
vn 0 -1 0
vn 0 -1 0
vn 0 -1 0
vn 0 -1 0
vn 0 -1 0
vn 0 -1 0
vn 0 -1 0
vn 0 -1 0
vn 0 -1 0
vn 0 -1 0
vn 0 -1 0
vn 0 -1 0
vn 0 -1 0
vn 0 -1 0
vn 0 -1 0
vn 0 -1 0
vn 0 -1 0
vn 0 -1 0
vn 0 -1 0
vn 0 -1 0
vn 0 -1 0
vn 0.04053944 0 0.9991779
vn -0.04053944 0 0.9991779
vn 0.04053944 0 0.9991779
vn -0.04053944 0 0.9991779
vn 0.1632396 0 0.9865865
vn 0.1632396 0 0.9865865
vn 0.3280117 0 0.9446737
vn 0.3280117 0 0.9446737
vn 0.4895824 0 0.8719569
vn 0.4895824 0 0.8719569
vn 0.6398327 0 0.7685142
vn 0.6398327 0 0.7685142
vn 0.7685142 0 0.6398327
vn 0.7685142 0 0.6398327
vn 0.8719569 0 0.4895824
vn 0.8719569 0 0.4895824
vn 0.9446737 0 0.3280117
vn 0.9446737 0 0.3280117
vn 0.9865865 0 0.1632396
vn 0.9865865 0 0.1632396
vn 0.9991779 0 0.04053944
vn 0.9991779 0 0.04053944
vn 1 0 0
vn 0.9991779 0 0.04053944
vn 1 0 0
vn 0.9991779 0 0.04053944
vn 0 0 -1
vn 0 0 -1
vn 0 0 -1
vn 0 0 -1
vn -0.9991779 0 0.04053944
vn -1 0 0
vn -0.9991779 0 0.04053944
vn -1 0 0
vn -0.9865865 0 0.1632396
vn -0.9865865 0 0.1632396
vn -0.9446737 0 0.3280117
vn -0.9446737 0 0.3280117
vn -0.8719569 0 0.4895824
vn -0.8719569 0 0.4895824
vn -0.7685142 0 0.6398327
vn -0.7685142 0 0.6398327
vn -0.6398327 0 0.7685142
vn -0.6398327 0 0.7685142
vn -0.4895824 0 0.8719569
vn -0.4895824 0 0.8719569
vn -0.3280117 0 0.9446737
vn -0.3280117 0 0.9446737
vn -0.1632396 0 0.9865865
vn -0.1632396 0 0.9865865
vn -0.04053944 0 0.9991779
vn -0.04053944 0 0.9991779
g Ramp001_0
f 3/3/3 2/2/2 1/1/1
f 4/4/4 1/1/1 2/2/2
f 1/1/1 5/5/5 3/3/3
f 6/6/6 3/3/3 5/5/5
f 5/5/5 7/7/7 6/6/6
f 8/8/8 6/6/6 7/7/7
f 7/7/7 9/9/9 8/8/8
f 10/10/10 8/8/8 9/9/9
f 9/9/9 11/11/11 10/10/10
f 12/12/12 10/10/10 11/11/11
f 11/11/11 13/13/13 12/12/12
f 14/14/14 12/12/12 13/13/13
f 13/13/13 15/15/15 14/14/14
f 16/16/16 14/14/14 15/15/15
f 15/15/15 17/17/17 16/16/16
f 18/18/18 16/16/16 17/17/17
f 17/17/17 19/19/19 18/18/18
f 20/20/20 18/18/18 19/19/19
f 19/19/19 21/21/21 20/20/20
f 22/22/22 20/20/20 21/21/21
f 25/25/25 24/24/24 23/23/23
f 26/26/26 23/23/23 24/24/24
f 23/23/23 27/27/27 25/25/25
f 28/28/28 25/25/25 27/27/27
f 27/27/27 29/29/29 28/28/28
f 30/30/30 28/28/28 29/29/29
f 29/29/29 31/31/31 30/30/30
f 32/32/32 30/30/30 31/31/31
f 31/31/31 33/33/33 32/32/32
f 34/34/34 32/32/32 33/33/33
f 33/33/33 35/35/35 34/34/34
f 36/36/36 34/34/34 35/35/35
f 35/35/35 37/37/37 36/36/36
f 38/38/38 36/36/36 37/37/37
f 37/37/37 39/39/39 38/38/38
f 40/40/40 38/38/38 39/39/39
f 39/39/39 41/41/41 40/40/40
f 42/42/42 40/40/40 41/41/41
f 41/41/41 43/43/43 42/42/42
f 44/44/44 42/42/42 43/43/43
f 47/47/47 46/46/46 45/45/45
f 48/48/48 45/45/45 46/46/46
f 47/47/47 45/45/45 49/49/49
f 50/50/50 49/49/49 45/45/45
f 49/49/49 50/50/50 51/51/51
f 52/52/52 51/51/51 50/50/50
f 51/51/51 52/52/52 53/53/53
f 54/54/54 53/53/53 52/52/52
f 53/53/53 54/54/54 55/55/55
f 56/56/56 55/55/55 54/54/54
f 55/55/55 56/56/56 57/57/57
f 58/58/58 57/57/57 56/56/56
f 57/57/57 58/58/58 59/59/59
f 60/60/60 59/59/59 58/58/58
f 59/59/59 60/60/60 61/61/61
f 62/62/62 61/61/61 60/60/60
f 61/61/61 62/62/62 63/63/63
f 64/64/64 63/63/63 62/62/62
f 63/63/63 64/64/64 65/65/65
f 66/66/66 65/65/65 64/64/64
f 69/69/69 68/68/68 67/67/67
f 70/70/70 67/67/67 68/68/68
f 73/73/73 72/72/72 71/71/71
f 74/74/74 71/71/71 72/72/72
f 77/77/77 76/76/76 75/75/75
f 78/78/78 75/75/75 76/76/76
f 77/77/77 75/75/75 79/79/79
f 80/80/80 79/79/79 75/75/75
f 79/79/79 80/80/80 81/81/81
f 82/82/82 81/81/81 80/80/80
f 81/81/81 82/82/82 83/83/83
f 84/84/84 83/83/83 82/82/82
f 83/83/83 84/84/84 85/85/85
f 86/86/86 85/85/85 84/84/84
f 85/85/85 86/86/86 87/87/87
f 88/88/88 87/87/87 86/86/86
f 87/87/87 88/88/88 89/89/89
f 90/90/90 89/89/89 88/88/88
f 89/89/89 90/90/90 91/91/91
f 92/92/92 91/91/91 90/90/90
f 91/91/91 92/92/92 93/93/93
f 94/94/94 93/93/93 92/92/92
f 93/93/93 94/94/94 95/95/95
f 96/96/96 95/95/95 94/94/94
