g book_2
v 1.598017 0.2200572 -1.068607
v 1.598017 0.1627537 -1.068607
v 1.598017 0.1627537 1.029542
v 1.598017 0.1741832 1.050054
v 1.598017 0.2200572 1.043178
v 1.598017 0.207864 1.096728
v 1.598017 0.1597472 1.13869
v 1.598017 0.1162114 1.153078
v 1.598017 3.252606E-21 1.166803
v 1.598017 3.252606E-21 1.058975
v 1.598017 -0.1162114 1.153078
v 1.598017 -0.1627537 1.029542
v 1.598017 -0.1741832 1.050054
v 1.598017 -0.1597472 1.13869
v 1.598017 -0.207864 1.096728
v 1.598017 -0.1627537 -1.068607
v 1.598017 -0.2200572 1.043178
v 1.598017 -0.2200572 -1.068607
v 1.598017 0.2200572 -1.068607
v -1.598017 0.2200572 -1.068607
v -1.598017 0.1627537 -1.068607
v 1.598017 0.1627537 -1.068607
v -1.54298 3.252606E-21 1.059478
v -1.54298 0.1577344 1.030045
v -1.598017 0.1627537 1.029542
v -1.598017 3.252606E-21 1.058975
v -1.54298 -0.1577344 1.030045
v -1.598017 -0.1627537 1.029542
v -1.598017 0.2200572 -1.068607
v 1.598017 0.2200572 -1.068607
v 1.598017 0.2200572 1.043178
v -1.598017 0.2200572 1.043178
v 1.54298 0.1577344 1.030045
v 1.54298 0.1577344 -1.012783
v 1.529861 3.252606E-21 -0.9839332
v 1.54298 3.252606E-21 1.059478
v 1.54298 -0.1577344 -1.012783
v 1.54298 -0.1577344 1.030045
v 1.54298 0.1577344 -1.012783
v -1.54298 0.1577344 -1.012783
v -1.529861 3.252606E-21 -0.9839332
v 1.529861 3.252606E-21 -0.9839332
v -1.54298 -0.1577344 -1.012783
v 1.54298 -0.1577344 -1.012783
v 1.54298 0.1577344 -1.012783
v 1.54298 0.1577344 1.030045
v 1.598017 0.1627537 1.029542
v 1.598017 0.1627537 -1.068607
v -1.54298 0.1577344 -1.012783
v -1.598017 0.1627537 -1.068607
v -1.54298 0.1577344 1.030045
v -1.598017 0.1627537 1.029542
v 1.54298 0.1577344 1.030045
v 1.598017 3.252606E-21 1.058975
v 1.598017 0.1627537 1.029542
v 1.54298 3.252606E-21 1.059478
v 1.598017 -0.1627537 1.029542
v 1.54298 -0.1577344 1.030045
v -1.598017 0.207864 1.096728
v -1.598017 0.2200572 1.043178
v 1.598017 0.2200572 1.043178
v 1.598017 0.207864 1.096728
v 1.598017 0.1597472 1.13869
v -1.598017 0.1597472 1.13869
v 1.598017 0.1162114 1.153078
v -1.598017 0.1162114 1.153078
v 1.598017 3.252606E-21 1.166803
v -1.598017 3.252606E-21 1.166803
v 1.598017 -0.1162114 1.153078
v -1.598017 -0.1162114 1.153078
v 1.598017 -0.1597472 1.13869
v -1.598017 -0.1597472 1.13869
v 1.598017 -0.207864 1.096728
v -1.598017 -0.207864 1.096728
v -1.598017 -0.2200572 1.043178
v 1.598017 -0.2200572 1.043178
v -1.54298 0.1577344 -1.012783
v -1.54298 0.1577344 1.030045
v -1.54298 3.252606E-21 1.059478
v -1.529861 3.252606E-21 -0.9839332
v -1.54298 -0.1577344 1.030045
v -1.54298 -0.1577344 -1.012783
v -1.598017 -0.2200572 -1.068607
v 1.598017 -0.2200572 -1.068607
v 1.598017 -0.1627537 -1.068607
v -1.598017 -0.1627537 -1.068607
v 1.598017 -0.2200572 -1.068607
v -1.598017 -0.2200572 -1.068607
v -1.598017 -0.2200572 1.043178
v 1.598017 -0.2200572 1.043178
v -1.54298 -0.1577344 -1.012783
v -1.54298 -0.1577344 1.030045
v -1.598017 -0.1627537 1.029542
v -1.598017 -0.1627537 -1.068607
v 1.54298 -0.1577344 -1.012783
v 1.598017 -0.1627537 -1.068607
v 1.54298 -0.1577344 1.030045
v 1.598017 -0.1627537 1.029542
v -1.598017 0.1741832 1.050054
v -1.598017 0.1627537 1.029542
v -1.598017 0.1627537 -1.068607
v -1.598017 0.2200572 -1.068607
v -1.598017 0.2200572 1.043178
v -1.598017 0.207864 1.096728
v -1.598017 0.1597472 1.13869
v -1.598017 0.1162114 1.153078
v -1.598017 3.252606E-21 1.058975
v -1.598017 3.252606E-21 1.166803
v -1.598017 -0.1162114 1.153078
v -1.598017 -0.1627537 1.029542
v -1.598017 -0.1741832 1.050054
v -1.598017 -0.1597472 1.13869
v -1.598017 -0.1627537 -1.068607
v -1.598017 -0.207864 1.096728
v -1.598017 -0.2200572 -1.068607
v -1.598017 -0.2200572 1.043178
vt 0.2927246 0.4560547
vt 0.2927246 0.4555664
vt 0.2729492 0.4555664
vt 0.2729492 0.4555664
vt 0.2729492 0.4560547
vt 0.2724609 0.4560547
vt 0.2719727 0.4555664
vt 0.2719727 0.4550781
vt 0.2717285 0.4541016
vt 0.2727051 0.4541016
vt 0.2719727 0.4528809
vt 0.2729492 0.4523926
vt 0.2729492 0.4523926
vt 0.2719727 0.4523926
vt 0.2724609 0.4521484
vt 0.2927246 0.4523926
vt 0.2729492 0.4519043
vt 0.2927246 0.4519043
vt 0.2717285 0.4470215
vt 0.3017578 0.4470215
vt 0.3017578 0.4465332
vt 0.2717285 0.4465332
vt 0.2717285 0.4399414
vt 0.2717285 0.4414063
vt 0.2722168 0.4416504
vt 0.2722168 0.4399414
vt 0.2717285 0.4384766
vt 0.2722168 0.4384766
vt 0.4851074 0.3383789
vt 0.4851074 0.009765625
vt 0.2678223 0.009765625
vt 0.2678223 0.3383789
vt 0.01174164 0.6484375
vt 0.4177246 0.6484375
vt 0.4118652 0.6113281
vt 0.005889893 0.6113281
vt 0.4177246 0.5742188
vt 0.01174164 0.5742188
vt 0.0150528 0.6479492
vt 0.3774414 0.6479492
vt 0.3759766 0.6098633
vt 0.0165863 0.6098633
vt 0.3774414 0.5712891
vt 0.0150528 0.5712891
vt 0.270752 0.4211426
vt 0.270752 0.4404297
vt 0.2712402 0.4404297
vt 0.2712402 0.4206543
vt 0.2418213 0.4211426
vt 0.241333 0.4206543
vt 0.2418213 0.4404297
vt 0.241333 0.4404297
vt 0.2722168 0.4450684
vt 0.2717285 0.4436035
vt 0.2717285 0.4450684
vt 0.2722168 0.4436035
vt 0.2717285 0.4418945
vt 0.2722168 0.4421387
vt 0.2583008 0.5375977
vt 0.2585449 0.5375977
vt 0.2585449 0.4899902
vt 0.2583008 0.4899902
vt 0.2575684 0.4899902
vt 0.2575684 0.5375977
vt 0.2568359 0.4899902
vt 0.2568359 0.5375977
vt 0.255127 0.4899902
vt 0.255127 0.5375977
vt 0.253418 0.4899902
vt 0.253418 0.5375977
vt 0.2529297 0.4899902
vt 0.2529297 0.5375977
vt 0.2521973 0.4899902
vt 0.2521973 0.5375977
vt 0.2519531 0.5375977
vt 0.2519531 0.4899902
vt 0.01954651 0.6416016
vt 0.3994141 0.6416016
vt 0.4047852 0.6123047
vt 0.02490234 0.6123047
vt 0.3994141 0.5830078
vt 0.01954651 0.5830078
vt 0.3017578 0.4455566
vt 0.2717285 0.4455566
vt 0.2717285 0.4460449
vt 0.3017578 0.4460449
vt 0.2810059 0.4926758
vt 0.2438965 0.4926758
vt 0.2438965 0.5175781
vt 0.2810059 0.5175781
vt 0.2418213 0.4196777
vt 0.2418213 0.4003906
vt 0.241333 0.4003906
vt 0.241333 0.420166
vt 0.270752 0.4196777
vt 0.2712402 0.420166
vt 0.270752 0.4003906
vt 0.2712402 0.4003906
vt 0.291748 0.4511719
vt 0.2915039 0.4509277
vt 0.2717285 0.4509277
vt 0.2717285 0.451416
vt 0.291748 0.451416
vt 0.2922363 0.451416
vt 0.2924805 0.4509277
vt 0.2927246 0.4504395
vt 0.291748 0.4494629
vt 0.2927246 0.4494629
vt 0.2927246 0.4482422
vt 0.2915039 0.447998
vt 0.291748 0.4477539
vt 0.2924805 0.447998
vt 0.2717285 0.447998
vt 0.2922363 0.4475098
vt 0.2717285 0.4472656
vt 0.291748 0.4472656
vn 1 0 0
vn 1 0 0
vn 1 0 0
vn 1 0 0
vn 1 0 0
vn 1 0 0
vn 1 0 0
vn 1 0 0
vn 1 0 0
vn 1 0 0
vn 1 0 0
vn 1 0 0
vn 1 0 0
vn 1 0 0
vn 1 0 0
vn 1 0 0
vn 1 0 0
vn 1 0 0
vn 0 0 -1
vn 0 0 -1
vn 0 0 -1
vn 0 0 -1
vn 0.000767231 0 -1
vn 0.0007548332 -0.1806641 -0.9833984
vn 0.0007548332 -0.1806641 -0.9833984
vn 0.000767231 0 -1
vn 0.0007548332 0.1806641 -0.9833984
vn 0.0007548332 0.1806641 -0.9833984
vn 0 1 0
vn 0 1 0
vn 0 1 0.005630493
vn 0 1 0.005630493
vn 0.9990234 -0.04214478 -0.00320816
vn 0.9990234 -0.04214478 -0.00320816
vn 1 0 -0.003210068
vn 1 0 -0.003210068
vn 0.9990234 0.04214478 -0.00320816
vn 0.9990234 0.04214478 -0.00320816
vn 0 -0.1799316 -0.9838867
vn 0 -0.1799316 -0.9838867
vn 0 0 -1
vn 0 0 -1
vn 0 0.1799316 -0.9838867
vn 0 0.1799316 -0.9838867
vn 0.03598022 -0.9980469 -0.05426025
vn 0.09082031 -0.9960938 0
vn 0.09082031 -0.9960938 0
vn 0.03546143 -0.9980469 -0.05477905
vn -0.03598022 -0.9980469 -0.05426025
vn -0.03546143 -0.9980469 -0.05477905
vn -0.09082031 -0.9960938 0
vn -0.09082031 -0.9960938 0
vn -0.0007548332 -0.1806641 -0.9833984
vn -0.000767231 0 -1
vn -0.0007548332 -0.1806641 -0.9833984
vn -0.000767231 0 -1
vn -0.0007548332 0.1806641 -0.9833984
vn -0.0007548332 0.1806641 -0.9833984
vn 0 0.8457031 0.5336914
vn 0 1 0.005630493
vn 0 1 0.005630493
vn 0 0.8457031 0.5336914
vn 0 0.5239258 0.8520508
vn 0 0.5239258 0.8520508
vn 0 0.1733398 0.9848633
vn 0 0.1733398 0.9848633
vn 0 0 1
vn 0 0 1
vn 0 -0.1733398 0.9848633
vn 0 -0.1733398 0.9848633
vn 0 -0.5239258 0.8520508
vn 0 -0.5239258 0.8520508
vn 0 -0.8457031 0.5336914
vn 0 -0.8457031 0.5336914
vn 0 -1 0.005630493
vn 0 -1 0.005630493
vn -0.9990234 -0.04214478 -0.00320816
vn -0.9990234 -0.04214478 -0.00320816
vn -1 0 -0.003210068
vn -1 0 -0.003210068
vn -0.9990234 0.04214478 -0.00320816
vn -0.9990234 0.04214478 -0.00320816
vn 0 0 -1
vn 0 0 -1
vn 0 0 -1
vn 0 0 -1
vn 0 -1 0
vn 0 -1 0
vn 0 -1 0.005630493
vn 0 -1 0.005630493
vn -0.03598022 0.9980469 -0.05426025
vn -0.09082031 0.9960938 0
vn -0.09082031 0.9960938 0
vn -0.03546143 0.9980469 -0.05477905
vn 0.03598022 0.9980469 -0.05426025
vn 0.03546143 0.9980469 -0.05477905
vn 0.09082031 0.9960938 0
vn 0.09082031 0.9960938 0
vn -1 0 0
vn -1 0 0
vn -1 0 0
vn -1 0 0
vn -1 0 0
vn -1 0 0
vn -1 0 0
vn -1 0 0
vn -1 0 0
vn -1 0 0
vn -1 0 0
vn -1 0 0
vn -1 0 0
vn -1 0 0
vn -1 0 0
vn -1 0 0
vn -1 0 0
vn -1 0 0
g book_2_0
f 3/3/3 2/2/2 1/1/1
f 1/1/1 4/4/4 3/3/3
f 1/1/1 5/5/5 4/4/4
f 4/4/4 5/5/5 6/6/6
f 4/4/4 6/6/6 7/7/7
f 7/7/7 8/8/8 4/4/4
f 3/3/3 4/4/4 8/8/8
f 3/3/3 8/8/8 9/9/9
f 9/9/9 10/10/10 3/3/3
f 10/10/10 9/9/9 11/11/11
f 12/12/12 10/10/10 11/11/11
f 11/11/11 13/13/13 12/12/12
f 13/13/13 11/11/11 14/14/14
f 13/13/13 14/14/14 15/15/15
f 16/16/16 12/12/12 13/13/13
f 15/15/15 17/17/17 13/13/13
f 16/16/16 13/13/13 17/17/17
f 17/17/17 18/18/18 16/16/16
f 21/21/21 20/20/20 19/19/19
f 22/22/22 21/21/21 19/19/19
f 25/25/25 24/24/24 23/23/23
f 26/26/26 25/25/25 23/23/23
f 26/26/26 23/23/23 27/27/27
f 28/28/28 26/26/26 27/27/27
f 31/31/31 30/30/30 29/29/29
f 32/32/32 31/31/31 29/29/29
f 35/35/35 34/34/34 33/33/33
f 36/36/36 35/35/35 33/33/33
f 35/35/35 36/36/36 37/37/37
f 36/36/36 38/38/38 37/37/37
f 41/41/41 40/40/40 39/39/39
f 42/42/42 41/41/41 39/39/39
f 41/41/41 42/42/42 43/43/43
f 42/42/42 44/44/44 43/43/43
f 47/47/47 46/46/46 45/45/45
f 48/48/48 47/47/47 45/45/45
f 48/48/48 45/45/45 49/49/49
f 50/50/50 48/48/48 49/49/49
f 50/50/50 49/49/49 51/51/51
f 52/52/52 50/50/50 51/51/51
f 55/55/55 54/54/54 53/53/53
f 54/54/54 56/56/56 53/53/53
f 54/54/54 57/57/57 56/56/56
f 57/57/57 58/58/58 56/56/56
f 61/61/61 60/60/60 59/59/59
f 62/62/62 61/61/61 59/59/59
f 63/63/63 62/62/62 59/59/59
f 64/64/64 63/63/63 59/59/59
f 65/65/65 63/63/63 64/64/64
f 66/66/66 65/65/65 64/64/64
f 67/67/67 65/65/65 66/66/66
f 68/68/68 67/67/67 66/66/66
f 67/67/67 68/68/68 69/69/69
f 68/68/68 70/70/70 69/69/69
f 69/69/69 70/70/70 71/71/71
f 70/70/70 72/72/72 71/71/71
f 71/71/71 72/72/72 73/73/73
f 72/72/72 74/74/74 73/73/73
f 74/74/74 75/75/75 73/73/73
f 75/75/75 76/76/76 73/73/73
f 79/79/79 78/78/78 77/77/77
f 80/80/80 79/79/79 77/77/77
f 79/79/79 80/80/80 81/81/81
f 80/80/80 82/82/82 81/81/81
f 85/85/85 84/84/84 83/83/83
f 86/86/86 85/85/85 83/83/83
f 89/89/89 88/88/88 87/87/87
f 90/90/90 89/89/89 87/87/87
f 93/93/93 92/92/92 91/91/91
f 94/94/94 93/93/93 91/91/91
f 94/94/94 91/91/91 95/95/95
f 96/96/96 94/94/94 95/95/95
f 96/96/96 95/95/95 97/97/97
f 98/98/98 96/96/96 97/97/97
f 101/101/101 100/100/100 99/99/99
f 99/99/99 102/102/102 101/101/101
f 99/99/99 103/103/103 102/102/102
f 104/104/104 103/103/103 99/99/99
f 105/105/105 104/104/104 99/99/99
f 99/99/99 106/106/106 105/105/105
f 106/106/106 99/99/99 100/100/100
f 106/106/106 100/100/100 107/107/107
f 107/107/107 108/108/108 106/106/106
f 109/109/109 108/108/108 107/107/107
f 109/109/109 107/107/107 110/110/110
f 110/110/110 111/111/111 109/109/109
f 112/112/112 109/109/109 111/111/111
f 111/111/111 110/110/110 113/113/113
f 114/114/114 112/112/112 111/111/111
f 111/111/111 113/113/113 115/115/115
f 111/111/111 116/116/116 114/114/114
f 115/115/115 116/116/116 111/111/111
