g Med_St_Up_Peak
v -0.9 0 1.5
v -0.9 0.7999999 -0.009
v 0.9 0.7999999 -0.009
v 0.9 0 1.5
v 0.9 0 1.5
v 0.9 0.7999999 -0.009
v 0.96 0.8000001 -0.009
v 0.96 0 1.5
v -0.96 0 1.5
v -0.96 0.7999999 -0.009
v -0.9 0.7999999 -0.009
v -0.9 0 1.5
v 0.96 -0.345 -0.009
v 0.96 -0.345 1.5
v 0.96 0 1.5
v 0.96 0.8000001 -0.009
v 0.96 -0.345 -1.518
v 0.96 5.215384E-11 -1.518
v -0.96 0.7999999 -0.009
v -0.96 0 1.5
v -0.96 -0.345 1.5
v -0.96 -0.345 -0.009
v -0.96 5.215384E-11 -1.518
v -0.96 -0.345 -1.518
v -0.9 5.215384E-11 -1.518
v 0.9 5.215384E-11 -1.518
v 0.9 0.7999999 -0.009
v -0.9 0.7999999 -0.009
v 0.96 5.215384E-11 -1.518
v 0.96 0.8000001 -0.009
v 0.9 0.7999999 -0.009
v 0.9 5.215384E-11 -1.518
v -0.96 5.215384E-11 -1.518
v -0.9 5.215384E-11 -1.518
v -0.9 0.7999999 -0.009
v -0.96 0.7999999 -0.009
vt 0.2075 1
vt 0.2075 0.5
vt 0.7925 0.5
vt 0.7925 1
vt 0.0055775 1
vt 0.0055775 0.5
vt 0.025265 0.5
vt 0.025265 1
vt 0.005735001 1
vt 0.005735001 0.5
vt 0.0254225 0.5
vt 0.0254225 1
vt 0.025265 0.5
vt 0.025265 1
vt 0.025265 1
vt 0.025265 0.5
vt 0.025265 0
vt 0.025265 0
vt 0.005735001 0.5
vt 0.005735001 1
vt 0.005735001 1
vt 0.005735001 0.5
vt 0.005735001 0
vt 0.005735001 0
vt 0.2075 0
vt 0.7925 0
vt 0.7925 0.5
vt 0.2075 0.5
vt 0.025265 0
vt 0.025265 0.5
vt 0.0055775 0.5
vt 0.0055775 0
vt 0.005735001 0
vt 0.0254225 0
vt 0.0254225 0.5
vt 0.005735001 0.5
vn 0 0.8835172 0.4683987
vn 0 0.8835172 0.4683987
vn 0 0.8835172 0.4683987
vn 0 0.8835172 0.4683987
vn 0 0.8835172 0.4683987
vn 0 0.8835172 0.4683987
vn 0 0.8835171 0.4683988
vn 0 0.8835171 0.4683988
vn 0 0.8835171 0.4683988
vn 0 0.8835171 0.4683988
vn 0 0.8835172 0.4683987
vn 0 0.8835172 0.4683987
vn 1 0 0
vn 1 0 0
vn 1 0 0
vn 1 0 0
vn 1 0 0
vn 1 0 0
vn -1 0 0
vn -1 0 0
vn -1 0 0
vn -1 0 0
vn -1 0 0
vn -1 0 0
vn 0 0.8835171 -0.4683988
vn 0 0.8835171 -0.4683988
vn 0 0.8835171 -0.4683988
vn 0 0.8835171 -0.4683988
vn 0 0.8835171 -0.4683988
vn 0 0.8835171 -0.4683988
vn 0 0.8835171 -0.4683988
vn 0 0.8835171 -0.4683988
vn 0 0.8835171 -0.4683988
vn 0 0.8835171 -0.4683988
vn 0 0.8835171 -0.4683988
vn 0 0.8835171 -0.4683988
g Med_St_Up_Peak_0
f 3/3/3 2/2/2 1/1/1
f 4/4/4 3/3/3 1/1/1
f 7/7/7 6/6/6 5/5/5
f 8/8/8 7/7/7 5/5/5
f 11/11/11 10/10/10 9/9/9
f 12/12/12 11/11/11 9/9/9
f 15/15/15 14/14/14 13/13/13
f 16/16/16 15/15/15 13/13/13
f 13/13/13 17/17/17 16/16/16
f 17/17/17 18/18/18 16/16/16
f 21/21/21 20/20/20 19/19/19
f 22/22/22 21/21/21 19/19/19
f 19/19/19 23/23/23 22/22/22
f 23/23/23 24/24/24 22/22/22
f 27/27/27 26/26/26 25/25/25
f 28/28/28 27/27/27 25/25/25
f 31/31/31 30/30/30 29/29/29
f 32/32/32 31/31/31 29/29/29
f 35/35/35 34/34/34 33/33/33
f 36/36/36 35/35/35 33/33/33
